<?xml version="1.0" encoding="utf-8"?>
<!-- Generator: Adobe Illustrator 25.0.0, SVG Export Plug-In . SVG Version: 6.00 Build 0)  -->
<svg version="1.1" id="Layer_1" xmlns="http://www.w3.org/2000/svg" xmlns:xlink="http://www.w3.org/1999/xlink" x="0px" y="0px"
	 viewBox="0 0 492 492" style="enable-background:new 0 0 492 492;" xml:space="preserve">
<style type="text/css">
	.st0{fill-rule:evenodd;clip-rule:evenodd;fill:#66737C;}
	.st1{fill-rule:evenodd;clip-rule:evenodd;fill:#F2AE96;}
	.st2{fill-rule:evenodd;clip-rule:evenodd;fill:#9E66AA;}
	.st3{fill-rule:evenodd;clip-rule:evenodd;fill:#E1E5E8;}
	.st4{fill-rule:evenodd;clip-rule:evenodd;fill:#333333;}
</style>
<g id="Master_Layer_1">
</g>
<g>
	<g>
		<g>
			<g>
				<g>
					<path class="st0" d="M347.1,342l-38.3,39.8l-8.9-54.5L347.1,342z"/>
				</g>
				<g>
					<path class="st1" d="M412.4,132.7l-64.7,207.5l-0.6,1.8L300,327.3l47.7-152.9l17.6-56.3L412.4,132.7z"/>
				</g>
				<g>
					<path class="st2" d="M418.3,82.8c4.9,1.5,7.6,6.7,6.1,11.6l-12,38.4L365.3,118l12-38.4c1.5-4.9,6.7-7.6,11.6-6.1L418.3,82.8z"
						/>
				</g>
				<g>
					<path class="st3" d="M347.7,340.2v74.2c0,3.3-2.7,5.9-5.9,5.9H73.6c-3.3,0-5.9-2.7-5.9-5.9V79.1c0-3.3,2.7-5.9,5.9-5.9h268.1
						c3.3,0,5.9,2.7,5.9,5.9v95.2L300,327.3l8.9,54.5l38.3-39.8L347.7,340.2z"/>
				</g>
			</g>
		</g>
	</g>
	<g>
		<g>
			<g>
				<path class="st4" d="M308.8,387.5c-0.6,0-1.2-0.1-1.7-0.3c-2.1-0.6-3.6-2.4-4-4.6l-8.9-54.5c-0.1-0.9-0.1-1.8,0.2-2.6
					l77.3-247.6c1.2-3.8,3.8-6.9,7.3-8.8s7.6-2.2,11.4-1l29.6,9.2c7.9,2.5,12.3,10.9,9.8,18.8l-77.3,247.6c-0.3,0.9-0.7,1.6-1.3,2.3
					L313,385.8C311.9,386.9,310.4,387.5,308.8,387.5z M305.9,327.7l6.8,41.8L342,339l76.9-246.3c0.6-1.8-0.5-3.8-2.3-4.3l-29.6-9.2
					c-0.9-0.3-1.8-0.2-2.6,0.2c-0.8,0.4-1.4,1.2-1.7,2L305.9,327.7z M347.1,342L347.1,342L347.1,342z"/>
			</g>
			<g>
				<path class="st4" d="M412.4,138.5c-0.6,0-1.1-0.1-1.7-0.3l-47.2-14.7c-3-0.9-4.7-4.2-3.8-7.2c0.9-3,4.2-4.7,7.2-3.8l47.2,14.7
					c3,0.9,4.7,4.2,3.8,7.2C417.2,136.9,414.9,138.5,412.4,138.5L412.4,138.5z"/>
			</g>
			<g>
				<path class="st4" d="M347.1,347.7c-0.6,0-1.1-0.1-1.7-0.3l-47.2-14.7c-3-0.9-4.7-4.2-3.8-7.2c0.9-3,4.2-4.7,7.2-3.8l47.2,14.7
					c3,0.9,4.7,4.2,3.8,7.2C351.8,346.2,349.6,347.7,347.1,347.7z"/>
			</g>
		</g>
		<g>
			<path class="st4" d="M300,119H115.4c-3.2,0-5.8-2.6-5.8-5.8s2.6-5.8,5.8-5.8H300c3.2,0,5.8,2.6,5.8,5.8S303.1,119,300,119z"/>
		</g>
		<g>
			<path class="st4" d="M300,157.1H115.4c-3.2,0-5.8-2.6-5.8-5.8s2.6-5.8,5.8-5.8H300c3.2,0,5.8,2.6,5.8,5.8S303.1,157.1,300,157.1z
				"/>
		</g>
		<g>
			<path class="st4" d="M297.6,195.3H115.4c-3.2,0-5.8-2.6-5.8-5.8s2.6-5.8,5.8-5.8h182.1c3.2,0,5.8,2.6,5.8,5.8
				C303.3,192.7,300.7,195.3,297.6,195.3z"/>
		</g>
		<g>
			<path class="st4" d="M288,233.4H115.4c-3.2,0-5.8-2.6-5.8-5.8s2.6-5.8,5.8-5.8H288c3.2,0,5.8,2.6,5.8,5.8
				C293.7,230.8,291.1,233.4,288,233.4z"/>
		</g>
		<g>
			<path class="st4" d="M278.4,271.6H115.4c-3.2,0-5.8-2.6-5.8-5.8s2.6-5.8,5.8-5.8h162.9c3.2,0,5.8,2.6,5.8,5.8
				S281.5,271.6,278.4,271.6z"/>
		</g>
		<g>
			<path class="st4" d="M265.8,309.7H115.4c-3.2,0-5.8-2.6-5.8-5.8s2.6-5.8,5.8-5.8h150.4c3.2,0,5.8,2.6,5.8,5.8
				C271.5,307.2,269,309.7,265.8,309.7z"/>
		</g>
		<g>
			<path class="st4" d="M251.7,347.9H115.4c-3.2,0-5.8-2.6-5.8-5.8s2.6-5.8,5.8-5.8h136.3c3.2,0,5.8,2.6,5.8,5.8
				C257.4,345.3,254.9,347.9,251.7,347.9L251.7,347.9z"/>
		</g>
		<g>
			<path class="st4" d="M266.4,386H115.4c-3.2,0-5.8-2.6-5.8-5.8s2.6-5.8,5.8-5.8h150.9c3.2,0,5.8,2.6,5.8,5.8S269.5,386,266.4,386z
				"/>
		</g>
		<g>
			<path class="st4" d="M341.7,426.1H73.6c-6.5,0-11.7-5.2-11.7-11.7V79.1c0-6.5,5.2-11.7,11.7-11.7h268.1c6.5,0,11.7,5.2,11.7,11.7
				v95.2c0,3.2-2.6,5.8-5.8,5.8s-5.8-2.6-5.8-5.8V79.1c0-0.1-0.1-0.2-0.2-0.2H73.6c-0.1,0-0.2,0.1-0.2,0.2v335.3
				c0,0.1,0.1,0.2,0.2,0.2h268.1c0.1,0,0.2-0.1,0.2-0.2v-74.2c0-3.2,2.6-5.8,5.8-5.8s5.8,2.6,5.8,5.8v74.2
				C353.4,420.8,348.2,426.1,341.7,426.1z"/>
		</g>
	</g>
</g>
</svg>
